<svg version="1" xmlns="http://www.w3.org/2000/svg" width="2730.667" height="2730.667" viewBox="0 0 2048.000000 2048.000000"><path d="M999.9 583.5c-.2.1-4.5.6-9.5.9-5 .4-9.9.8-11 1-1 .2-4.8.7-8.4 1.1-3.6.3-7.2.8-8 1-.8.2-3.5.7-6 1-2.5.4-7.6 1.3-11.5 2.1-3.8.9-7.9 1.7-9 2-1.1.2-3.3.6-5 1-3.1.6-5.3 1.3-22.5 6.4-9.9 3-19.6 6.4-26.5 9.4-1.6.8-5.9 2.6-9.5 4.2-32 13.9-62.8 35-88 60.4-26.8 26.9-45.6 56.6-61 96.5-5.7 14.7-12.7 43.8-14.5 60-.4 3.3-1 8.9-1.5 12.5-1.3 11-1.3 18-1.4 181 0 141.8.4 178.4 1.8 185.7.3 1.2.7 4.8 1.1 7.9 2.2 20.9 10.2 50.7 19.7 73.4 4.1 10.1 14.8 30.8 19.2 37.5 19.7 30 36.1 48.2 62.7 69.8 17.9 14.5 50.3 32.9 74.9 42.5 26.9 10.4 62.3 19.6 84.5 21.7 2.8.3 6.2.8 7.5 1 16.2 3.1 78.1 2.5 97.5-.9 1.7-.3 5-.8 7.5-1.1 7.4-.9 20.6-3.4 30.4-5.6 10.7-2.4 11.1-2.6 28.1-8 92.2-29.5 157.1-91.3 185.8-177 3.5-10.5 5.2-16.1 6.1-20.9.8-3.9 1.3-6.2 2.4-10.5.9-3.5 3.3-18.2 4.7-29.5 1.6-12.7 1.8-41 1.8-187.5-.1-146.8-.3-172.1-1.7-183-.2-1.7-.7-5.5-1.1-8.5-3.6-30.5-14.3-64.9-28.8-93-12-23.3-28.2-45.4-47.3-64.5-9.4-9.5-15.1-14.5-29.4-25.8-4.2-3.3-20.6-14-29-18.9-18.8-11-53.3-26-65-28.2-.3-.1-.9-.4-1.5-.7-3.3-2.1-41.9-10.7-55.5-12.5-2.5-.3-5.2-.7-6-.9-.8-.2-5.1-.7-9.5-1.1-4.4-.3-8.9-.8-10-1.1-2.3-.6-57.1-1.4-57.6-.8zm51.3 195.9c28.9 5.3 51.9 18.7 66.9 38.7 4.7 6.4 12.6 21.6 13.4 26.1.3 1.1.9 3.5 1.5 5.2 2.2 6.9 3.6 22.9 3.4 39.7-.2 16.4-.4 19.4-1.9 27.9-6.1 34.9-31.5 63-67 73.9-27.3 8.5-58.7 8.7-85.2.7-16.3-5-31.3-13.6-41.8-24.1-10.3-10.3-19.6-26.4-23.6-41.1-3.7-13.5-4.4-20.6-4.3-44 .2-26.7 5.1-45 16.6-62 12.8-18.9 34.6-33.5 58.2-39.1 3.7-.8 16-3.2 19.1-3.6 6.9-1 36.5.2 44.7 1.7zM33.9 598.5c-.4 6.1 0 190.5.4 191.2.3.5 48.8.9 121.7.8 66.7 0 121.4.3 121.6.6.3.6-3.7 9.4-17.8 38.9-2.8 5.8-6.8 14.1-8.8 18.5-3.6 7.7-10.4 21.9-21.3 44.5-2.8 5.8-5.1 10.7-5.2 11 0 .3-2.3 5-4.9 10.5-4.8 9.7-10.4 21.7-19.1 40-4 8.6-7.9 16.7-20.3 42.5-3 6.3-7.4 15.7-9.8 20.8l-4.4 9.4v28.6l11.8-.5c17.8-.8 57.3-.8 69.7 0 14.9.9 21.1 1.7 41.5 5.2 1.4.3 6.3 1.5 11 2.9 32.9 9.2 55.8 26.4 68.3 51.2 10.5 20.9 14.6 51.1 10.1 75.9-5.9 32.8-22.1 57.6-46.4 70.8-7.1 3.9-20.2 8.5-26.5 9.3-2.2.3-5.1.7-6.5 1-5.5.9-27.4.3-35.3-1-7.1-1.2-9.5-1.8-16.2-3.7-7.4-2.2-23.5-9.7-23.5-11 0-.4-.8-1-1.8-1.3-2.6-.9-12.4-10.6-16.2-16.1-7.4-10.8-12.3-25.6-13.6-40.9l-.7-8.6H.7l.7 14.5c.3 7.9.8 15 1.1 15.7.2.7.6 3.8.9 6.8.8 9.2 5.2 30.1 9.1 43 25.2 85.4 91.8 154 176.8 182.1 8.1 2.7 25 7.2 30.7 8.3 8.2 1.4 13.1 2.2 19.9 3.2 2.5.4 5.4.8 6.3 1 14.5 2.6 65.7 2.5 87.3-.1 1.7-.2 5.5-.6 8.5-.9 3-.4 6.3-.9 7.3-1.2 1.1-.3 2.9-.7 4-.9 3.1-.4 8.4-1.4 13.7-2.6 2.5-.6 5.4-1.2 6.5-1.5 6.8-1.3 27.7-8.3 40-13.2 17.1-6.8 37.5-17.8 53.5-28.9 15-10.5 23.9-18.1 38.9-33.3 29.6-30 52.2-66.9 67.1-109.5 1.9-5.4 2.9-8.9 7.5-26 1.8-6.6 5.3-25.6 6-32.5.4-3 .8-6.1 1.1-6.8.2-.7.7-6.8 1.1-13.5 2.1-38.3-1-78.7-8.3-108.7-10.8-44.9-28.7-79.8-54.8-107-13.5-14-23-21.7-41.1-33.3-6.5-4.1-22.3-12-32-15.9-9.3-3.8-30.8-10.8-33.1-10.8-2.7 0-2.3-2 2-9.6 2.3-4.4 6.2-11.5 8.6-15.9 9.1-17 11.3-21.1 13-24 1.6-2.8 3-5.4 12.6-23.3 2-3.7 4.9-9 6.4-11.7 1.5-2.8 4.3-7.9 6.3-11.5 1.9-3.6 9-16.6 15.7-29 6.7-12.4 13.6-25 15.2-28 1.6-3 3.3-6.2 3.8-7 .6-.8 5.1-9.2 10.1-18.5 5-9.4 10.5-19.5 12.1-22.5 1.7-3 4.6-8.4 6.6-12 1.9-3.6 5.9-10.9 8.8-16.3 3-5.3 5.4-9.9 5.4-10.2 0-.2 1.3-2.6 2.8-5.2 1.6-2.6 5.2-9.3 8.2-14.8 2.9-5.5 7.6-14.1 10.3-19l5-9V616c-.1-7.4-.1-14.6-.2-16l-.1-2.5H303c-178.6 0-269 .3-269.1 1zM1479.7 597.8c-1.6.3-1.7 16.2-1.7 237.1v236.8l5.3-.2c2.8-.2 12.2-.6 20.7-1 8.5-.3 17.8-.8 20.5-1 2.8-.2 9.5-.6 15-1 5.5-.3 13.4-.8 17.5-1 52.4-3.5 116.5-3.9 143.5-1 2.2.2 6.7.7 10 1 6.2.5 6.7.6 22.5 3 20.3 3.1 45.8 10.7 58.5 17.3 7.2 3.8 18.3 11.4 23.1 15.9 6.2 5.8 14 16.6 17.8 24.6 5.5 11.8 9.3 29.8 9 42.3-.1 6-1.2 18.4-1.8 22-.3 1.7-1.6 8.3-2.2 11-3.7 18.2-15.9 39-29.3 50-6.2 5.2-22.3 14.1-26.9 14.9-1.2.2-2.6.6-3.1.9-5.2 3.3-39.5 5.5-52.6 3.5-35.5-5.6-58.1-21.6-69.2-49.1-2.9-7.2-6.1-21.8-6.4-29.5l-.2-5.3h-186.8l.6 6.7c.3 3.8.8 9.7 1.1 13.3.3 3.6.7 7.6.9 9 .2 1.4.7 4.7 1 7.5 1.4 11 7 36.6 10.2 47 13.8 44.3 32.8 78 61.5 108.9 29 31 69.3 56.3 110.8 69.4 8.7 2.7 28.7 7.9 33 8.6 1.9.3 4.6.8 6 1.1 1.4.2 3.6.7 5 1 1.4.2 4.8.7 7.5 1 2.8.3 6.8.9 9 1.2 11.6 1.6 23.4 2 45.5 1.7 23.1-.3 26.7-.5 36.5-1.8 2.2-.4 6-.8 8.5-1.1 9-1.1 34.7-6.7 45.9-10.1 45.5-13.8 85.2-37.4 117.5-69.9 6.7-6.8 11.1-11.8 24.5-28 11.3-13.7 30.9-48.7 38.7-69.3 6.5-17.1 13.5-41.1 15.8-54.2 2.2-13 2.3-13.8 3.8-25.4 1.6-12.9 1.6-63.5-.1-77.1-.7-5.5-1.4-11.4-1.6-13-1.1-9.5-1.6-13.2-2-14.5-.3-.8-.7-3.3-1-5.5-1.1-7.1-7.3-30.9-10.8-41.1-12.4-35.8-29.1-63-54.2-87.9-39.9-39.8-95.2-63.9-171.5-74.9-11.8-1.7-20-2.7-26.3-3.1-2.3-.1-9.6-.7-16.2-1.1-14.1-1-72-1.2-91.7-.3l-13.8.7V782.5l173.8.1c95.5 0 174.3-.2 175-.4.9-.3 1.2-19.7 1.2-92.3 0-72.8-.3-91.9-1.2-92-3.1-.3-524.6-.4-526.1-.1z"/></svg>