<?xml version="1.0" encoding="utf-8"?>
<!-- Generator: Adobe Illustrator 23.0.1, SVG Export Plug-In . SVG Version: 6.00 Build 0)  -->
<svg version="1.1" id="Laag_1" xmlns="http://www.w3.org/2000/svg" xmlns:xlink="http://www.w3.org/1999/xlink" x="0px" y="0px"
	 viewBox="0 0 950 606" style="enable-background:new 0 0 950 606;" xml:space="preserve">
<style type="text/css">
	.st0{fill:#DEE1E6;}
	.st1{fill:#FFFFFF;}
	.st2{fill:#E76A58;}
	.st3{fill:#FEC052;}
	.st4{fill:#81D154;}
	.st5{fill:#F1F3F4;}
	.st6{fill:#BCBEC0;}
	.st7{fill:#5F6368;}
	.st8{fill:#808285;}
	.st9{fill:#1ED760;}
</style>
<title>chrome_browser</title>
<path class="st0" d="M950,33.2V5c0-2.8,0-5-4.5-5H4.5C0,0,0,2.2,0,5v28.1h950V33.2z"/>
<rect y="67" class="st1" width="950" height="539"/>
<rect y="66" class="st0" width="950" height="2"/>
<rect y="32.5" class="st1" width="950" height="34.5"/>
<circle class="st2" cx="14.5" cy="16.5" r="4.2"/>
<circle class="st3" cx="27.1" cy="16.5" r="4.2"/>
<circle class="st4" cx="39.8" cy="16.5" r="4.2"/>
<path class="st5" d="M878.5,60.7H92.1c-6.1,0-11-5-11-11.1c0,0,0,0,0,0l0,0c0-6.1,4.9-11,11-11.1h786.4c6.1,0,11,5,11,11.1
	c0,0,0,0,0,0l0,0C889.5,55.7,884.6,60.7,878.5,60.7C878.5,60.7,878.5,60.7,878.5,60.7z"/>
<path class="st5" d="M63.1,60.7L63.1,60.7c-6.1,0-11-5-11-11.1c0,0,0,0,0,0l0,0c0-6.1,4.9-11,11-11.1l0,0c6.1,0,11,5,11,11.1
	c0,0,0,0,0,0l0,0C74.1,55.7,69.2,60.7,63.1,60.7C63.1,60.7,63.1,60.7,63.1,60.7z"/>
<path class="st6" d="M937.7,45.8c0,0.7-0.6,1.3-1.3,1.3l0,0c-0.7,0-1.3-0.6-1.3-1.3l0,0c0-0.7,0.6-1.3,1.3-1.3l0,0
	C937.1,44.5,937.7,45,937.7,45.8C937.7,45.7,937.7,45.8,937.7,45.8z"/>
<path class="st6" d="M937.7,49.8c0,0.7-0.6,1.3-1.3,1.3l0,0c-0.7,0-1.3-0.6-1.3-1.3l0,0c0-0.7,0.6-1.3,1.3-1.3l0,0
	C937.1,48.5,937.7,49,937.7,49.8C937.7,49.7,937.7,49.8,937.7,49.8z"/>
<path class="st6" d="M937.7,53.6c0,0.7-0.6,1.3-1.3,1.3l0,0c-0.7,0-1.3-0.6-1.3-1.3l0,0c0-0.7,0.6-1.3,1.3-1.3l0,0
	C937.1,52.3,937.7,52.8,937.7,53.6C937.7,53.5,937.7,53.6,937.7,53.6z"/>
<path class="st6" d="M45.1,50.4c0.3-0.4,0.3-0.8,0-1.2l0,0L44.9,49l-4.1-4.1c-0.3-0.3-0.7-0.2-1.1,0.1c-0.3,0.3-0.4,0.8-0.1,1.1
	l2.6,2.6h-8.3c-0.6,0-1.1,0.5-1.1,1.1c0,0.6,0.5,1.1,1.1,1.1h8.3l-2.6,2.6c-0.3,0.3-0.2,0.7,0.1,1.1c0.3,0.3,0.8,0.4,1.1,0.1
	l4.1-4.1C44.9,50.6,45.1,50.4,45.1,50.4z"/>
<path class="st7" d="M10,50.4c-0.3-0.4-0.3-0.8,0-1.2l0,0l0.2-0.2l4.1-4.1c0.3-0.3,0.7-0.2,1.1,0.1c0.3,0.3,0.4,0.8,0.1,1.1
	l-2.6,2.6h8.3c0.6,0,1.1,0.5,1.1,1.1c0,0.6-0.5,1.1-1.1,1.1h-8.3l2.6,2.6c0.3,0.3,0.2,0.7-0.1,1.1c-0.3,0.3-0.8,0.4-1.1,0.1
	l-4.1-4.1C10.2,50.6,10,50.4,10,50.4z"/>
<path class="st7" d="M65.5,52.1L65.5,52.1c-1.3,1.3-3.4,1.3-4.7,0s-1.3-3.4,0-4.7c1.2-1.3,3.3-1.3,4.5-0.1c0,0,0.1,0,0.1,0.1
	l-0.9,0.9l1.6,0.2l1.6,0.2l-0.2-1.6l-0.2-1.6l-0.7,0.7c-1.9-1.9-5.1-1.9-7,0c-2,2-2,5.2,0,7.2c0,0,0,0,0,0c2,1.9,5.1,1.9,7.1,0
	L65.5,52.1z"/>
<path class="st6" d="M99.1,53.4l-3-3c1-1.7,0.5-3.8-1.2-4.8c-1.7-1-3.8-0.5-4.8,1.2s-0.5,3.8,1.2,4.8c0.5,0.3,1.2,0.5,1.8,0.5
	c0.7,0,1.3-0.2,1.9-0.5l3,3c0.2,0.2,0.6,0.1,1-0.3C99.2,54.1,99.3,53.7,99.1,53.4z M90.7,48.7c0-1.3,1-2.3,2.3-2.3
	c1.2,0,2.3,1,2.3,2.2c0,0,0,0.1,0,0.1c0,1.3-1,2.3-2.3,2.3C91.7,51,90.7,50,90.7,48.7z"/>
<path class="st1" d="M192.3,8.9H60.8c-2.2,0-4,1.8-4,4V33c0,0.1,0,0.1,0.1,0.1h139.4V12.9C196.3,10.7,194.5,8.9,192.3,8.9z"/>
<path class="st8" d="M189.9,22.6l-1.6-1.6l1.6-1.6c0.2-0.2,0.3-0.6,0.1-0.8c-0.2-0.2-0.6-0.3-0.8-0.1c0,0-0.1,0.1-0.1,0.1l-1.6,1.6
	l-1.6-1.6c-0.2-0.2-0.6-0.1-0.8,0.1c-0.2,0.2-0.2,0.5,0,0.7l1.6,1.6l-1.6,1.6c-0.2,0.2-0.1,0.6,0.1,0.8c0.2,0.2,0.5,0.2,0.7,0
	l1.6-1.6l1.6,1.6c0.2,0.2,0.6,0.3,0.8,0.1S190.2,22.9,189.9,22.6C190,22.7,189.9,22.6,189.9,22.6L189.9,22.6z"/>
<path class="st1" d="M49.4,32.5h7.4v-7.4C56.8,29.2,53.5,32.5,49.4,32.5C49.4,32.5,49.4,32.5,49.4,32.5z"/>
<path class="st1" d="M196.3,25.1v7.4h7.4C199.6,32.5,196.3,29.2,196.3,25.1C196.3,25.1,196.3,25.1,196.3,25.1z"/>
<path class="st7" d="M212.4,23.7V21h2.6c0.4,0,0.7-0.3,0.7-0.7c0-0.4-0.3-0.7-0.7-0.7h-2.6V17c0-0.4-0.3-0.7-0.7-0.7
	S211,16.6,211,17c0,0,0,0,0,0v2.6h-2.6c-0.4,0-0.7,0.3-0.7,0.7c0,0.4,0.3,0.7,0.7,0.7h2.6v2.6c0,0.4,0.3,0.7,0.7,0.7
	C212.1,24.3,212.4,24.1,212.4,23.7z"/>
<path class="st7" d="M908.3,54.3l0.2-0.8c0-0.1,0.1-0.1,0.2-0.1l5.2-0.8c0.2,0,0.2-0.2,0.3-0.2l1-5.6c0-0.2-0.1-0.3-0.2-0.4h-0.2
	l-5.8,0.7c-0.2,0-0.2,0.2-0.3,0.2l-1.2,6.5c-0.1,0.5-0.4,0.8-0.9,0.8c-0.5,0-0.9-0.3-1-0.8l-1.7-7.5c-0.2-0.7,0.2-1.3,0.9-1.5l0,0
	l6.5-1.8c0.7-0.2,1.4,0.2,1.7,0.9l0.1,0.3c0,0.1,0,0.2-0.2,0.2l-0.8,0.1c-0.1,0-0.2,0-0.2-0.1l-0.1-0.2c-0.1-0.1-0.2-0.2-0.4-0.2
	l-6.5,1.8c-0.2,0-0.2,0.2-0.2,0.3l1.7,7.4l1.1-6.5c0.1-0.6,0.5-1,1.1-1.1l5.9-0.8c0.3,0,0.6,0,0.9,0.2c0.5,0.3,0.8,0.9,0.6,1.4
	l-1,5.6c-0.1,0.6-0.6,1-1.1,1.1L908.3,54.3C908.3,54.5,908.2,54.4,908.3,54.3z"/>
<path class="st9" d="M915.8,57.1h-3.2c-0.9,0-1.7-0.8-1.7-1.7v-3.2c0-0.9,0.8-1.7,1.7-1.7h3.2c0.9,0,1.7,0.8,1.7,1.7v3.2
	C917.4,56.3,916.7,57.1,915.8,57.1z"/>
<path class="st1" d="M913.3,53.1v-0.5c0.2,0,0.4,0,0.5-0.1c0.1,0,0.2-0.1,0.3-0.2c0.1-0.1,0.1-0.2,0.2-0.2V52h0.6v3.5h-0.8V53
	L913.3,53.1z"/>
</svg>
